<svg version="1.1" xmlns="http://www.w3.org/2000/svg" xmlns:xlink="http://www.w3.org/1999/xlink" width="112.99289" height="28.08494" viewBox="0,0,112.99289,28.08494"><g transform="translate(-188.75759,-167.03173)"><g data-paper-data="{&quot;isPaintingLayer&quot;:true}" fill="#ffffff" fill-rule="nonzero" stroke-width="0" stroke-linecap="butt" stroke-linejoin="miter" stroke-miterlimit="10" stroke-dasharray="" stroke-dashoffset="0" style="mix-blend-mode: normal"><path d="M188.7576,193.8104v-25.79896c0,0 8.20149,0 12.08306,0c2.07645,0 5.875,2.42039 8.17253,5.87413c1.69659,2.55039 2.27768,5.96124 2.27768,7.84177c0,2.07331 -0.59309,5.41238 -2.60139,7.91067c-2.01669,2.50873 -5.45226,4.17238 -7.19568,4.17238c-3.96733,0 -12.73619,0 -12.73619,0z" stroke="#000000"/><path d="M215.53626,194.46354l12.40962,-26.4521l13.38933,26.4521z" stroke="none"/><path d="M248.8463,194.46353v-26.45209c0,0 9.71868,0 13.38933,0c1.12559,0 4.48124,1.34321 5.69349,3.9778c1.16565,2.53332 1.05135,6.02672 0.92345,8.71587c-0.02719,0.57179 -0.33743,1.87362 -0.78721,2.78463c-0.24556,0.49736 -1.43821,1.12015 -1.73876,1.19894c-1.26975,0.33286 -2.45812,0.63092 -2.45812,0.63092l5.87824,9.79707z" stroke="none"/><path d="M279.21722,195.11667v-28.08494h22.53326l-8.81736,14.69561l8.81736,13.38933z" stroke="none"/></g></g></svg>